<svg width="1920" height="1200" viewBox="0 0 1920 1200" version="1.1" xmlns="http://www.w3.org/2000/svg" xmlns:xlink="http://www.w3.org/1999/xlink">
<g id="Canvas" fill="none">
<g id="Frame" clip-path="url(#clip0)">
<rect width="1920" height="1200" fill="white"/>
<g id="Vector">
<path d="M 59.513 1200L 59.513 0M 119.513 1200L 119.513 0.000854492M 179.513 1200L 179.513 0.000854492M 239.513 1200L 239.513 0.00170898M 299.513 1200L 299.513 0.000854492M 359.513 1200L 359.513 0.00170898M 419.513 1200L 419.513 0.00170898M 479.513 1200L 479.513 0.00256348M 539.513 1200L 539.513 0.000854492M 599.513 1200L 599.513 0.00170898M 659.513 1200L 659.513 0.00170898M 719.513 1200L 719.513 0.00256348M 779.513 1200L 779.513 0.000854492M 839.513 1200L 839.513 0.00170898M 899.513 1200L 899.513 0.00170898M 959.513 1200L 959.513 0.00256348M 1019.51 1200L 1019.51 0.000854492M 1079.51 1200L 1079.51 0.00170898M 1139.51 1200L 1139.51 0.00170898M 1199.51 1200L 1199.51 0.00256348M 1259.51 1200L 1259.51 0.000854492M 1319.51 1200L 1319.51 0.00170898M 1379.51 1200L 1379.51 0.00170898M 1439.51 1200L 1439.51 0.00256348M 1499.51 1200L 1499.51 0.000854492M 1559.51 1200L 1559.51 0.00170898M 1619.51 1200L 1619.51 0.00170898M 1679.51 1200L 1679.51 0.00256348M 1739.51 1200L 1739.51 0.000854492M 1799.51 1200L 1799.51 0.00170898M 1859.51 1200L 1859.51 0.00170898M 0 39.5009L 1920 39.5009M 0.0130206 79.5009L 1920.01 79.5009M 0.0130206 119.501L 1920.01 119.501M 0.0260411 159.501L 1920.03 159.501M 0.0130206 199.501L 1920.01 199.501M 0.0260411 239.501L 1920.03 239.501M 0.0260411 279.501L 1920.03 279.501M 0.0390617 319.501L 1920.04 319.501M 0.0130206 359.501L 1920.01 359.501M 0.0260411 399.501L 1920.03 399.501M 0.0260411 439.501L 1920.03 439.501M 0.0390617 479.501L 1920.04 479.501M 0.0130206 519.501L 1920.01 519.501M 0.0260411 559.501L 1920.03 559.501M 0.0260411 599.501L 1920.03 599.501M 0.0390617 639.501L 1920.04 639.501M 0.0130206 679.501L 1920.01 679.501M 0.0260411 719.501L 1920.03 719.501M 0.0260411 759.501L 1920.03 759.501M 0.0390617 799.501L 1920.04 799.501M 0.0130206 839.501L 1920.01 839.501M 0.0260411 879.501L 1920.03 879.501M 0.0260411 919.501L 1920.03 919.501M 0.0390617 959.501L 1920.04 959.501M 0.0130206 999.501L 1920.01 999.501M 0.0260411 1039.5L 1920.03 1039.5M 0.0260411 1079.5L 1920.03 1079.5M 0.0390617 1119.5L 1920.04 1119.5M 0.0130206 1159.5L 1920.01 1159.5M 0.0260411 1199.5L 1920.03 1199.5" transform="translate(-0.0130206 -0.000854492)" stroke="black"/>
</g>
</g>
</g>
<defs>

<clipPath id="clip0">
<rect width="1920" height="1200" fill="white"/>
</clipPath>

</defs>
</svg>

