<svg width="800" height="800" viewBox="0 0 800 800" version="1.1" xmlns="http://www.w3.org/2000/svg" xmlns:xlink="http://www.w3.org/1999/xlink">
<title>Frame</title>
<desc>Created using Figma</desc>
<g id="Canvas">
<clipPath id="clip-0" clip-rule="evenodd">
<path d="M 0 0L 800 0L 800 800L 0 800L 0 0Z" fill="#FFFFFF"/>
</clipPath>
<g id="Frame" clip-path="url(#clip-0)">
<g id="Group">
<g id="Line">
<use xlink:href="#path0_stroke" transform="translate(0 20)"/>
</g>
<g id="Line">
<use xlink:href="#path0_stroke" transform="translate(0 40)"/>
</g>
<g id="Line">
<use xlink:href="#path0_stroke" transform="translate(0 60)"/>
</g>
<g id="Line">
<use xlink:href="#path0_stroke" transform="translate(0 80)"/>
</g>
<g id="Line">
<use xlink:href="#path0_stroke" transform="translate(0 100)"/>
</g>
<g id="Line">
<use xlink:href="#path0_stroke" transform="translate(0 120)"/>
</g>
<g id="Line">
<use xlink:href="#path0_stroke" transform="translate(0 140)"/>
</g>
<g id="Line">
<use xlink:href="#path0_stroke" transform="translate(0 160)"/>
</g>
</g>
<g id="Group">
<g id="Line">
<use xlink:href="#path0_stroke" transform="translate(0 180)"/>
</g>
<g id="Line">
<use xlink:href="#path0_stroke" transform="translate(0 200)"/>
</g>
<g id="Line">
<use xlink:href="#path0_stroke" transform="translate(0 220)"/>
</g>
<g id="Line">
<use xlink:href="#path0_stroke" transform="translate(0 240)"/>
</g>
<g id="Line">
<use xlink:href="#path0_stroke" transform="translate(0 260)"/>
</g>
<g id="Line">
<use xlink:href="#path0_stroke" transform="translate(0 280)"/>
</g>
<g id="Line">
<use xlink:href="#path0_stroke" transform="translate(0 300)"/>
</g>
<g id="Line">
<use xlink:href="#path0_stroke" transform="translate(0 320)"/>
</g>
</g>
<g id="Group">
<g id="Line">
<use xlink:href="#path0_stroke" transform="translate(0 340)"/>
</g>
<g id="Line">
<use xlink:href="#path0_stroke" transform="translate(0 360)"/>
</g>
<g id="Line">
<use xlink:href="#path0_stroke" transform="translate(0 380)"/>
</g>
<g id="Line">
<use xlink:href="#path0_stroke" transform="translate(0 400)"/>
</g>
<g id="Line">
<use xlink:href="#path0_stroke" transform="translate(0 420)"/>
</g>
<g id="Line">
<use xlink:href="#path0_stroke" transform="translate(0 440)"/>
</g>
<g id="Line">
<use xlink:href="#path0_stroke" transform="translate(0 460)"/>
</g>
<g id="Line">
<use xlink:href="#path0_stroke" transform="translate(0 480)"/>
</g>
</g>
<g id="Group">
<g id="Line">
<use xlink:href="#path0_stroke" transform="translate(0 500)"/>
</g>
<g id="Line">
<use xlink:href="#path0_stroke" transform="translate(0 520)"/>
</g>
<g id="Line">
<use xlink:href="#path0_stroke" transform="translate(0 540)"/>
</g>
<g id="Line">
<use xlink:href="#path0_stroke" transform="translate(0 560)"/>
</g>
<g id="Line">
<use xlink:href="#path0_stroke" transform="translate(0 580)"/>
</g>
<g id="Line">
<use xlink:href="#path0_stroke" transform="translate(0 600)"/>
</g>
<g id="Line">
<use xlink:href="#path0_stroke" transform="translate(0 620)"/>
</g>
<g id="Line">
<use xlink:href="#path0_stroke" transform="translate(0 640)"/>
</g>
</g>
<g id="Group">
<g id="Line">
<use xlink:href="#path0_stroke" transform="translate(1.77636e-15 660)"/>
</g>
<g id="Line">
<use xlink:href="#path0_stroke" transform="translate(1.77636e-15 680)"/>
</g>
<g id="Line">
<use xlink:href="#path0_stroke" transform="translate(1.77636e-15 700)"/>
</g>
<g id="Line">
<use xlink:href="#path0_stroke" transform="translate(1.77636e-15 720)"/>
</g>
<g id="Line">
<use xlink:href="#path0_stroke" transform="translate(1.77636e-15 740)"/>
</g>
<g id="Line">
<use xlink:href="#path0_stroke" transform="translate(1.77636e-15 760)"/>
</g>
<g id="Line">
<use xlink:href="#path0_stroke" transform="translate(1.77636e-15 780)"/>
</g>
<g id="Line">
<use xlink:href="#path0_stroke" transform="translate(1.77636e-15 800)"/>
</g>
</g>
</g>
</g>
<defs>
<path id="path0_stroke" d="M 0 0L 800.001 0L 800.001 -1L 0 -1L 0 0Z"/>
</defs>
</svg>
