<svg width="1505" height="206" viewBox="0 0 1505 206" fill="none" xmlns="http://www.w3.org/2000/svg">
<g clip-path="url(#clip0)">
<path d="M60 28.5L0 67V118.5H1506.5V46L1441.5 67L1379.5 28.5L1337 77.5L1288 28.5L1226 77.5L1145 67L1109.5 28.5L1048 88.5L972 77.5L931.5 28.5L850 67L804.5 28.5L739 77.5L659.5 88.5L608.5 46L550.5 88.5L509.5 67L495.5 107.5L389.5 88.5L337 67L314 28.5L259 0L241.5 28.5L229 46H181.5L150 0L98.5 67L60 28.5Z" transform="translate(0.5 88)" fill="#C4C4C4"/>
</g>
<defs>
<clipPath id="clip0">
<rect width="1505" height="206" fill="white"/>
</clipPath>
</defs>
</svg>
